<svg width="24" height="17" viewBox="0 0 24 17" fill="none" xmlns="http://www.w3.org/2000/svg">
<path id="Vector" fill-rule="evenodd" clip-rule="evenodd" d="M1.10654 0.824279C1.53006 0.318107 2.10439 0.0337549 2.70323 0.0337549C3.30208 0.0337549 3.87641 0.318107 4.29992 0.824279L11.7368 9.71538L19.1738 0.824279C19.3821 0.566401 19.6313 0.360709 19.9068 0.219205C20.1824 0.0777002 20.4787 0.00321725 20.7786 0.000101944C21.0785 -0.00301336 21.3758 0.0653007 21.6534 0.201059C21.9309 0.336817 22.1831 0.537301 22.3951 0.790811C22.6072 1.04432 22.7749 1.34578 22.8884 1.6776C23.002 2.00942 23.0591 2.36496 23.0565 2.72346C23.0539 3.08197 22.9916 3.43626 22.8733 3.76567C22.7549 4.09508 22.5829 4.39301 22.3672 4.64208L13.3335 15.4421C12.91 15.9482 12.3357 16.2326 11.7368 16.2326C11.138 16.2326 10.5637 15.9482 10.1402 15.4421L1.10654 4.64208C0.683157 4.13575 0.445312 3.44912 0.445312 2.73318C0.445312 2.01724 0.683157 1.3306 1.10654 0.824279Z" fill="black"/>
</svg>
