<svg width="379" height="177" viewBox="0 0 379 177" fill="none" xmlns="http://www.w3.org/2000/svg">
<path d="M362.789 10.6327C361.612 6.37432 364.109 1.96738 368.367 0.78952C372.626 -0.388336 377.033 2.10892 378.21 6.3673C379.388 10.6257 376.891 15.0326 372.633 16.2105C368.374 17.3883 363.967 14.8911 362.789 10.6327ZM308.895 58.1673L309.46 59.5567L308.895 58.1673ZM1.21228 170.576C1.36969 169.763 2.15663 169.231 2.96997 169.389C3.7833 169.546 4.31504 170.333 4.15763 171.146L1.21228 170.576ZM6.73693 159.719C6.53148 160.521 5.71433 161.005 4.91179 160.8C4.10924 160.594 3.6252 159.777 3.83065 158.975L6.73693 159.719ZM7.06632 147.623C7.31489 146.833 8.15703 146.394 8.94728 146.642C9.73754 146.891 10.1767 147.733 9.92808 148.523L7.06632 147.623ZM13.7449 137.476C13.4521 138.251 12.5865 138.642 11.8116 138.349C11.0366 138.057 10.6457 137.191 10.9385 136.416L13.7449 137.476ZM15.4606 125.461C15.8004 124.705 16.6884 124.368 17.4439 124.708C18.1994 125.048 18.5364 125.936 18.1965 126.691L15.4606 125.461ZM23.3294 116.236C22.9385 116.966 22.0295 117.241 21.2991 116.85C20.5687 116.459 20.2935 115.55 20.6844 114.82L23.3294 116.236ZM26.6788 104.58C27.1255 103.882 28.0532 103.678 28.7509 104.125C29.4486 104.572 29.652 105.499 29.2053 106.197L26.6788 104.58ZM35.89 96.6983C35.3827 97.3532 34.4405 97.4729 33.7856 96.9656C33.1307 96.4583 33.011 95.5161 33.5183 94.8612L35.89 96.6983ZM41.2705 85.8292C41.8423 85.2297 42.7918 85.2073 43.3913 85.7792C43.9907 86.351 44.0131 87.3004 43.4413 87.8999L41.2705 85.8292ZM51.8936 79.9969C51.2559 80.5257 50.3103 80.4375 49.7815 79.7998C49.2526 79.1621 49.3409 78.2165 49.9786 77.6876L51.8936 79.9969ZM59.6367 70.6669C60.3372 70.2247 61.2636 70.4342 61.7057 71.1348C62.1479 71.8354 61.9384 72.7618 61.2378 73.2039L59.6367 70.6669ZM71.3968 67.7274C70.6421 68.0689 69.7534 67.7338 69.4119 66.9791C69.0704 66.2243 69.4054 65.3356 70.1602 64.9941L71.3968 67.7274ZM81.3525 60.8484C82.1476 60.6156 82.9808 61.0713 83.2136 61.8664C83.4464 62.6614 82.9906 63.4947 82.1956 63.7275L81.3525 60.8484ZM93.468 61.2471C92.6488 61.3707 91.8846 60.8068 91.761 59.9877C91.6374 59.1685 92.2012 58.4043 93.0204 58.2807L93.468 61.2471ZM104.861 57.1278C105.687 57.0724 106.402 57.6976 106.457 58.5242C106.513 59.3507 105.888 60.0657 105.061 60.1211L104.861 57.1278ZM116.724 59.5487C115.896 59.575 115.204 58.925 115.177 58.097C115.151 57.269 115.801 56.5765 116.629 56.5502L116.724 59.5487ZM128.402 56.3655C129.231 56.3653 129.903 57.0367 129.903 57.8652C129.903 58.6936 129.232 59.3653 128.403 59.3655L128.402 56.3655ZM140.093 59.5284C139.265 59.5057 138.612 58.8159 138.635 57.9878C138.657 57.1597 139.347 56.5068 140.175 56.5295L140.093 59.5284ZM151.925 56.9944C152.753 57.0366 153.389 57.7416 153.347 58.5689C153.305 59.3963 152.6 60.0328 151.772 59.9906L151.925 56.9944ZM163.459 60.7034C162.632 60.6454 162.009 59.9284 162.067 59.102C162.126 58.2756 162.842 57.6527 163.669 57.7108L163.459 60.7034ZM175.383 58.6239C176.208 58.6939 176.821 59.4199 176.751 60.2453C176.681 61.0708 175.955 61.6832 175.129 61.6132L175.383 58.6239ZM186.797 62.664C185.972 62.5861 185.367 61.8544 185.444 61.0296C185.522 60.2049 186.254 59.5994 187.079 59.6773L186.797 62.664ZM198.765 60.8097C199.59 60.8908 200.192 61.6249 200.111 62.4494C200.03 63.2738 199.296 63.8764 198.472 63.7952L198.765 60.8097ZM210.147 64.938C209.322 64.8586 208.718 64.1258 208.798 63.3012C208.877 62.4766 209.61 61.8724 210.434 61.9518L210.147 64.938ZM222.093 63.0274C222.918 63.0992 223.529 63.8265 223.457 64.6518C223.386 65.4771 222.658 66.0879 221.833 66.0161L222.093 63.0274ZM233.56 66.943C232.734 66.8855 232.11 66.1689 232.168 65.3425C232.225 64.5161 232.942 63.8928 233.768 63.9503L233.56 66.943ZM245.443 64.6148C246.27 64.65 246.913 65.3495 246.877 66.1771C246.842 67.0048 246.143 67.6473 245.315 67.6121L245.443 64.6148ZM257.1 67.8969C256.272 67.8938 255.603 67.2198 255.606 66.3913C255.609 65.5629 256.283 64.8938 257.111 64.8969L257.1 67.8969ZM268.758 64.6465C269.585 64.6056 270.289 65.2433 270.33 66.0707C270.371 66.8981 269.733 67.602 268.906 67.6429L268.758 64.6465ZM280.697 66.662C279.875 66.761 279.128 66.1745 279.029 65.352C278.93 64.5295 279.516 63.7825 280.339 63.6835L280.697 66.662ZM291.772 61.8003C292.582 61.6273 293.379 62.1438 293.552 62.954C293.725 63.7642 293.208 64.5612 292.398 64.7342L291.772 61.8003ZM303.872 61.6234C303.086 61.8861 302.236 61.4621 301.974 60.6765C301.711 59.8908 302.135 59.0409 302.92 58.7782L303.872 61.6234ZM314.51 54.1421C315.266 53.8042 316.153 54.1434 316.491 54.8997C316.829 55.6561 316.49 56.5432 315.734 56.8811L314.51 54.1421ZM327.935 50.8807C327.206 51.275 326.296 51.004 325.902 50.2754C325.508 49.5468 325.779 48.6365 326.507 48.2422L327.935 50.8807ZM337.969 41.3735C338.659 40.915 339.59 41.1027 340.049 41.7927C340.507 42.4827 340.32 43.4137 339.63 43.8722L337.969 41.3735ZM350.58 35.7267C349.945 36.2581 348.999 36.1736 348.467 35.5381C347.936 34.9025 348.02 33.9565 348.656 33.4251L350.58 35.7267ZM358.249 24.2638C358.806 23.6501 359.754 23.6036 360.368 24.16C360.982 24.7164 361.028 25.665 360.472 26.2788L358.249 24.2638ZM368.769 15.2966C368.34 16.0057 367.418 16.2333 366.709 15.805C366 15.3766 365.773 14.4545 366.201 13.7454L368.769 15.2966ZM1.69873 176.594C0.212176 176.393 0.212187 176.393 0.212199 176.393C0.212204 176.393 0.212217 176.393 0.212228 176.393C0.21225 176.393 0.212276 176.393 0.212306 176.392C0.212367 176.392 0.212445 176.391 0.212541 176.391C0.212732 176.389 0.212993 176.387 0.213325 176.385C0.213987 176.38 0.214932 176.373 0.216161 176.364C0.218621 176.346 0.222222 176.321 0.227 176.287C0.236556 176.219 0.250817 176.12 0.270053 175.99C0.308524 175.73 0.366901 175.347 0.447347 174.851C0.608234 173.858 0.857434 172.41 1.21228 170.576L4.15763 171.146C3.80897 172.948 3.56506 174.366 3.40871 175.331C3.33054 175.813 3.27426 176.182 3.23774 176.429C3.21948 176.552 3.20616 176.645 3.1975 176.706C3.19318 176.737 3.19002 176.76 3.18799 176.774C3.18698 176.782 3.18625 176.787 3.1858 176.79C3.18558 176.792 3.18542 176.793 3.18534 176.794C3.18529 176.794 3.18527 176.794 3.18526 176.794C3.18525 176.794 3.18525 176.794 3.18526 176.794C3.18526 176.794 3.18527 176.794 3.18527 176.794C3.18528 176.794 3.18528 176.794 1.69873 176.594ZM3.83065 158.975C4.71078 155.537 5.77961 151.714 7.06632 147.623L9.92808 148.523C8.65912 152.557 7.60493 156.328 6.73693 159.719L3.83065 158.975ZM10.9385 136.416C12.2855 132.851 13.7879 129.179 15.4606 125.461L18.1965 126.691C16.5511 130.349 15.0721 133.964 13.7449 137.476L10.9385 136.416ZM20.6844 114.82C22.5233 111.384 24.5176 107.955 26.6788 104.58L29.2053 106.197C27.0896 109.502 25.1345 112.863 23.3294 116.236L20.6844 114.82ZM33.5183 94.8612C35.9317 91.7454 38.5123 88.7207 41.2705 85.8292L43.4413 87.8999C40.7591 90.7117 38.2452 93.6578 35.89 96.6983L33.5183 94.8612ZM49.9786 77.6876C53.0163 75.1686 56.2324 72.8153 59.6367 70.6669L61.2378 73.2039C57.9487 75.2796 54.837 77.5561 51.8936 79.9969L49.9786 77.6876ZM70.1602 64.9941C73.7158 63.3854 77.4441 61.9928 81.3525 60.8484L82.1956 63.7275C78.4237 64.8319 74.8268 66.1755 71.3968 67.7274L70.1602 64.9941ZM93.0204 58.2807C94.9677 57.9869 96.9537 57.7514 98.9789 57.5773L99.2359 60.5662C97.2739 60.7349 95.3515 60.9629 93.468 61.2471L93.0204 58.2807ZM98.9789 57.5773C100.944 57.4083 102.905 57.2589 104.861 57.1278L105.061 60.1211C103.123 60.2509 101.182 60.3989 99.2359 60.5662L98.9789 57.5773ZM116.629 56.5502C120.575 56.4248 124.5 56.3664 128.402 56.3655L128.403 59.3655C124.53 59.3664 120.637 59.4244 116.724 59.5487L116.629 56.5502ZM140.175 56.5295C144.118 56.6377 148.036 56.7961 151.925 56.9944L151.772 59.9906C147.904 59.7933 144.01 59.6359 140.093 59.5284L140.175 56.5295ZM163.669 57.7108C167.605 57.9874 171.511 58.2954 175.383 58.6239L175.129 61.6132C171.269 61.2856 167.378 60.9788 163.459 60.7034L163.669 57.7108ZM187.079 59.6773C191.012 60.0486 194.909 60.4301 198.765 60.8097L198.472 63.7952C194.616 63.4158 190.724 63.0347 186.797 62.664L187.079 59.6773ZM210.434 61.9518C214.368 62.3303 218.254 62.6934 222.093 63.0274L221.833 66.0161C217.982 65.681 214.085 65.317 210.147 64.938L210.434 61.9518ZM233.768 63.9503C237.719 64.2252 241.611 64.452 245.443 64.6148L245.315 67.6121C241.452 67.4479 237.532 67.2195 233.56 66.943L233.768 63.9503ZM257.111 64.8969C261.068 64.9116 264.951 64.8345 268.758 64.6465L268.906 67.6429C265.04 67.8338 261.103 67.9118 257.1 67.8969L257.111 64.8969ZM280.339 63.6835C284.245 63.2135 288.057 62.5935 291.772 61.8003L292.398 64.7342C288.586 65.5482 284.684 66.1824 280.697 66.662L280.339 63.6835ZM302.92 58.7782C304.751 58.1661 306.554 57.5005 308.329 56.778L309.46 59.5567C307.624 60.304 305.761 60.9917 303.872 61.6234L302.92 58.7782ZM308.329 56.778C310.461 55.9103 312.521 55.0309 314.51 54.1421L315.734 56.8811C313.713 57.7838 311.623 58.6765 309.46 59.5567L308.329 56.778ZM326.507 48.2422C330.717 45.9642 334.526 43.662 337.969 41.3735L339.63 43.8722C336.109 46.2117 332.223 48.5604 327.935 50.8807L326.507 48.2422ZM348.656 33.4251C352.502 30.2093 355.663 27.1164 358.249 24.2638L360.472 26.2788C357.793 29.2335 354.533 32.4222 350.58 35.7267L348.656 33.4251ZM366.201 13.7454C367.301 11.925 368.027 10.4718 368.475 9.48587C368.699 8.99286 368.853 8.61662 368.949 8.36965C368.997 8.24616 369.031 8.15498 369.052 8.09769C369.062 8.06904 369.069 8.04887 369.073 8.03736C369.075 8.0316 369.076 8.02801 369.077 8.02661C369.077 8.02591 369.077 8.02576 369.077 8.02616C369.077 8.02636 369.077 8.02669 369.076 8.02718C369.076 8.02741 369.076 8.02768 369.076 8.02799C369.076 8.02814 369.076 8.0284 369.076 8.02848C369.076 8.02874 369.076 8.02902 370.5 8.5C371.924 8.97099 371.924 8.97128 371.924 8.97158C371.924 8.97169 371.924 8.972 371.924 8.97222C371.924 8.97267 371.923 8.97315 371.923 8.97366C371.923 8.97469 371.922 8.97587 371.922 8.97717C371.921 8.97978 371.92 8.98296 371.919 8.98668C371.916 8.99412 371.913 9.00377 371.909 9.01559C371.901 9.03925 371.889 9.07163 371.875 9.11252C371.845 9.19432 371.802 9.31021 371.745 9.4586C371.629 9.75539 371.454 10.1822 371.207 10.7263C370.712 11.8146 369.931 13.3719 368.769 15.2966L366.201 13.7454Z" fill="#85B6FF"/>
</svg>
