<svg width="399" height="327" viewBox="0 0 399 327" fill="none" xmlns="http://www.w3.org/2000/svg">
<path d="M2.51251 1.80667C2.61929 0.985148 3.37183 0.405736 4.19333 0.512512C5.01486 0.619287 5.59427 1.37182 5.48749 2.19333L2.51251 1.80667ZM383.662 326.381C382.899 326.704 382.019 326.349 381.695 325.586L376.419 313.16C376.095 312.397 376.451 311.517 377.213 311.193C377.976 310.869 378.856 311.225 379.18 311.987L383.87 323.033L394.916 318.343C395.678 318.019 396.559 318.375 396.883 319.138C397.206 319.9 396.851 320.781 396.088 321.105L383.662 326.381ZM383.645 319.126C383.918 318.344 384.773 317.931 385.555 318.205C386.337 318.478 386.75 319.333 386.477 320.115L383.645 319.126ZM390.036 308.989C389.803 309.784 388.97 310.24 388.175 310.007C387.38 309.774 386.924 308.941 387.157 308.146L390.036 308.989ZM390.124 297.019C390.318 296.214 391.128 295.718 391.933 295.912C392.739 296.106 393.235 296.916 393.041 297.721L390.124 297.019ZM395.476 286.314C395.325 287.129 394.542 287.666 393.728 287.515C392.913 287.364 392.376 286.581 392.527 285.766L395.476 286.314ZM394.294 274.402C394.396 273.58 395.145 272.997 395.967 273.099C396.79 273.2 397.373 273.95 397.271 274.772L394.294 274.402ZM398.307 263.135C398.264 263.963 397.559 264.598 396.732 264.555C395.904 264.512 395.268 263.807 395.311 262.979L398.307 263.135ZM395.424 251.528C395.394 250.7 396.041 250.005 396.869 249.976C397.697 249.946 398.392 250.593 398.422 251.421L395.424 251.528ZM397.384 239.721C397.504 240.541 396.937 241.303 396.117 241.423C395.298 241.543 394.536 240.976 394.415 240.157L397.384 239.721ZM392.016 229.052C391.782 228.257 392.237 227.423 393.032 227.19C393.827 226.956 394.661 227.411 394.894 228.206L392.016 229.052ZM390.607 217.182C390.977 217.923 390.675 218.824 389.934 219.193C389.192 219.562 388.291 219.261 387.922 218.519L390.607 217.182ZM381.901 209.021C381.385 208.373 381.492 207.429 382.141 206.913C382.789 206.397 383.732 206.504 384.248 207.152L381.901 209.021ZM375.857 198.749C376.504 199.266 376.61 200.21 376.093 200.857C375.576 201.505 374.632 201.61 373.985 201.093L375.857 198.749ZM364.514 195.065C363.773 194.694 363.473 193.793 363.845 193.052C364.216 192.311 365.117 192.012 365.858 192.383L364.514 195.065ZM354.823 188.055C355.617 188.291 356.069 189.126 355.833 189.92C355.596 190.714 354.761 191.167 353.967 190.93L354.823 188.055ZM342.902 188.483C342.083 188.358 341.521 187.592 341.646 186.773C341.771 185.955 342.537 185.392 343.356 185.518L342.902 188.483ZM331.716 184.393C332.543 184.43 333.184 185.131 333.146 185.959C333.109 186.786 332.408 187.427 331.58 187.39L331.716 184.393ZM319.841 187.263C319.013 187.264 318.341 186.593 318.34 185.765C318.339 184.936 319.01 184.264 319.838 184.263L319.841 187.263ZM307.858 184.271C308.687 184.271 309.358 184.943 309.358 185.771C309.358 186.6 308.686 187.271 307.858 187.271L307.858 184.271ZM295.873 187.248C295.044 187.244 294.376 186.57 294.379 185.742C294.382 184.913 295.057 184.244 295.885 184.248L295.873 187.248ZM283.917 184.163C284.746 184.172 285.41 184.85 285.402 185.679C285.393 186.507 284.715 187.172 283.886 187.163L283.917 184.163ZM271.898 186.993C271.069 186.978 270.41 186.294 270.425 185.465C270.441 184.637 271.124 183.978 271.953 183.993L271.898 186.993ZM259.99 183.716C260.818 183.74 261.471 184.43 261.447 185.258C261.424 186.086 260.734 186.738 259.906 186.715L259.99 183.716ZM247.912 186.311C247.084 186.278 246.44 185.581 246.473 184.753C246.505 183.925 247.203 183.28 248.031 183.313L247.912 186.311ZM236.078 182.765C236.905 182.809 237.541 183.514 237.497 184.342C237.454 185.169 236.748 185.804 235.921 185.761L236.078 182.765ZM223.937 185.047C223.111 184.992 222.486 184.277 222.541 183.45C222.596 182.624 223.311 181.999 224.138 182.054L223.937 185.047ZM212.232 181.162C213.058 181.231 213.671 181.956 213.603 182.781C213.534 183.607 212.809 184.22 211.983 184.152L212.232 181.162ZM200.036 183.052C199.212 182.969 198.611 182.233 198.694 181.409C198.778 180.585 199.514 179.984 200.338 180.068L200.036 183.052ZM188.464 178.749C189.287 178.849 189.873 179.596 189.773 180.419C189.673 181.241 188.926 181.827 188.103 181.727L188.464 178.749ZM176.197 180.153C175.377 180.036 174.808 179.275 174.925 178.455C175.043 177.635 175.803 177.066 176.623 177.184L176.197 180.153ZM164.829 175.346C165.645 175.484 166.196 176.258 166.058 177.074C165.921 177.891 165.147 178.442 164.33 178.304L164.829 175.346ZM152.517 176.152C151.704 175.993 151.174 175.204 151.334 174.391C151.493 173.578 152.282 173.049 153.095 173.209L152.517 176.152ZM141.425 170.737C142.233 170.921 142.739 171.725 142.555 172.533C142.371 173.341 141.567 173.846 140.759 173.662L141.425 170.737ZM129.074 170.797C128.273 170.586 127.794 169.766 128.005 168.965C128.216 168.164 129.037 167.685 129.838 167.896L129.074 170.797ZM118.366 164.648C119.159 164.889 119.606 165.727 119.365 166.519C119.124 167.312 118.287 167.759 117.494 167.518L118.366 164.648ZM106.05 163.78C105.269 163.505 104.857 162.649 105.131 161.868C105.405 161.086 106.261 160.674 107.043 160.949L106.05 163.78ZM95.9077 156.751C96.6756 157.062 97.0461 157.936 96.7352 158.704C96.4243 159.472 95.5499 159.843 94.782 159.532L95.9077 156.751ZM83.7365 154.721C82.9863 154.369 82.663 153.476 83.0144 152.726C83.3658 151.976 84.2588 151.652 85.009 152.004L83.7365 154.721ZM74.4083 146.652C75.136 147.048 75.405 147.959 75.0091 148.686C74.6133 149.414 73.7024 149.683 72.9747 149.287L74.4083 146.652ZM62.5726 143.173C61.8733 142.729 61.6664 141.802 62.1106 141.102C62.5547 140.403 63.4817 140.196 64.181 140.641L62.5726 143.173ZM54.4195 133.919C55.0833 134.415 55.2195 135.355 54.7237 136.019C54.228 136.682 53.2881 136.819 52.6243 136.323L54.4195 133.919ZM43.2426 128.694C42.6227 128.145 42.5656 127.197 43.1151 126.577C43.6646 125.957 44.6126 125.9 45.2325 126.449L43.2426 128.694ZM36.7412 118.21C37.3085 118.814 37.2789 119.763 36.6752 120.331C36.0714 120.898 35.1222 120.868 34.5549 120.265L36.7412 118.21ZM26.6941 111.044C26.1883 110.388 26.3101 109.446 26.9662 108.94C27.6222 108.434 28.5641 108.556 29.0699 109.212L26.6941 111.044ZM22.335 99.5012C22.7719 100.205 22.5555 101.13 21.8517 101.567C21.1478 102.004 20.2231 101.787 19.7861 101.083L22.335 99.5012ZM13.9303 90.4768C13.5674 89.7321 13.8768 88.8342 14.6215 88.4712C15.3662 88.1083 16.2641 88.4178 16.6271 89.1625L13.9303 90.4768ZM11.9945 78.3058C12.2815 79.083 11.8842 79.9456 11.1071 80.2326C10.33 80.5196 9.46732 80.1223 9.1803 79.3451L11.9945 78.3058ZM5.54053 67.8218C5.32828 67.021 5.80536 66.1998 6.60614 65.9875C7.40689 65.7753 8.22812 66.2524 8.4404 67.0531L5.54053 67.8218ZM5.92624 55.5174C6.06747 56.3337 5.52023 57.1099 4.70392 57.2511C3.88763 57.3924 3.11139 56.8451 2.97015 56.0288L5.92624 55.5174ZM1.39771 44.0598C1.3222 43.2348 1.92978 42.5048 2.75476 42.4293C3.57974 42.3538 4.30972 42.9614 4.38522 43.7864L1.39771 44.0598ZM3.73819 31.9148C3.75394 32.7431 3.09521 33.4273 2.26694 33.443C1.43866 33.4588 0.754456 32.8001 0.738739 31.9718L3.73819 31.9148ZM0.908478 19.842C0.94632 19.0144 1.64789 18.3742 2.47546 18.4121C3.30301 18.45 3.94321 19.1515 3.90533 19.9791L0.908478 19.842ZM4.78296 8.24094C4.69824 9.06502 3.96155 9.66441 3.13745 9.5797C2.31335 9.495 1.71399 8.75827 1.79868 7.93419L4.78296 8.24094ZM383.076 325C381.685 324.438 381.685 324.438 381.685 324.438C381.685 324.438 381.685 324.438 381.685 324.438C381.685 324.438 381.685 324.438 381.685 324.438C381.685 324.438 381.685 324.438 381.685 324.438C381.685 324.437 381.686 324.436 381.686 324.434C381.688 324.431 381.69 324.426 381.692 324.419C381.698 324.405 381.707 324.384 381.718 324.355C381.741 324.298 381.775 324.211 381.82 324.095C381.911 323.864 382.045 323.519 382.216 323.067C382.558 322.162 383.05 320.83 383.645 319.126L386.477 320.115C385.873 321.845 385.372 323.202 385.022 324.128C384.846 324.592 384.708 324.948 384.614 325.189C384.567 325.31 384.53 325.402 384.506 325.464C384.493 325.495 384.484 325.519 384.477 325.535C384.474 325.544 384.471 325.55 384.47 325.554C384.469 325.556 384.468 325.558 384.467 325.559C384.467 325.56 384.467 325.561 384.467 325.561C384.467 325.561 384.467 325.561 384.467 325.561C384.467 325.562 384.467 325.562 384.467 325.562C384.467 325.562 384.466 325.562 383.076 325ZM387.157 308.146C388.134 304.809 389.15 301.066 390.124 297.019L393.041 297.721C392.054 301.82 391.025 305.61 390.036 308.989L387.157 308.146ZM392.527 285.766C393.208 282.1 393.811 278.294 394.294 274.402L397.271 274.772C396.78 278.729 396.167 282.595 395.476 286.314L392.527 285.766ZM395.311 262.979C395.51 259.173 395.559 255.34 395.424 251.528L398.422 251.421C398.561 255.33 398.51 259.251 398.307 263.135L395.311 262.979ZM394.415 240.157C393.859 236.365 393.072 232.647 392.016 229.052L394.894 228.206C395.994 231.951 396.809 235.807 397.384 239.721L394.415 240.157ZM387.922 218.519C386.248 215.159 384.255 211.976 381.901 209.021L384.248 207.152C386.742 210.284 388.847 213.646 390.607 217.182L387.922 218.519ZM373.985 201.093C371.177 198.851 368.031 196.828 364.514 195.065L365.858 192.383C369.558 194.238 372.881 196.373 375.857 198.749L373.985 201.093ZM353.967 190.93C350.551 189.914 346.869 189.09 342.902 188.483L343.356 185.518C347.449 186.144 351.266 186.996 354.823 188.055L353.967 190.93ZM331.58 187.39C329.688 187.304 327.743 187.26 325.743 187.26V184.26C327.786 184.26 329.777 184.305 331.716 184.393L331.58 187.39ZM325.743 187.26C323.81 187.26 321.842 187.262 319.841 187.263L319.838 184.263C321.84 184.262 323.809 184.26 325.743 184.26V187.26ZM307.858 187.271C303.958 187.27 299.959 187.265 295.873 187.248L295.885 184.248C299.966 184.265 303.961 184.27 307.858 184.271L307.858 187.271ZM283.886 187.163C279.953 187.123 275.953 187.067 271.898 186.993L271.953 183.993C275.999 184.068 279.991 184.123 283.917 184.163L283.886 187.163ZM259.906 186.715C255.948 186.604 251.948 186.47 247.912 186.311L248.031 183.313C252.054 183.472 256.043 183.605 259.99 183.716L259.906 186.715ZM235.921 185.761C231.95 185.553 227.953 185.316 223.937 185.047L224.138 182.054C228.138 182.322 232.12 182.558 236.078 182.765L235.921 185.761ZM211.983 184.152C208.009 183.821 204.025 183.456 200.036 183.052L200.338 180.068C204.308 180.469 208.275 180.833 212.232 181.162L211.983 184.152ZM188.103 181.727C184.129 181.246 180.158 180.722 176.197 180.153L176.623 177.184C180.562 177.749 184.511 178.27 188.464 178.749L188.103 181.727ZM164.33 178.304C160.374 177.638 156.433 176.922 152.517 176.152L153.095 173.209C156.984 173.972 160.897 174.684 164.829 175.346L164.33 178.304ZM140.759 173.662C136.83 172.768 132.933 171.814 129.074 170.797L129.838 167.896C133.663 168.904 137.528 169.85 141.425 170.737L140.759 173.662ZM117.494 167.518C113.629 166.343 109.812 165.098 106.05 163.78L107.043 160.949C110.763 162.253 114.54 163.485 118.366 164.648L117.494 167.518ZM94.782 159.532C91.03 158.013 87.3452 156.411 83.7365 154.721L85.009 152.004C88.5669 153.67 92.2026 155.251 95.9077 156.751L94.782 159.532ZM72.9747 149.287C69.4138 147.35 65.9431 145.314 62.5726 143.173L64.181 140.641C67.4917 142.743 70.9038 144.745 74.4083 146.652L72.9747 149.287ZM52.6243 136.323C49.3774 133.898 46.2466 131.357 43.2426 128.694L45.2325 126.449C48.1713 129.054 51.2368 131.542 54.4195 133.919L52.6243 136.323ZM34.5549 120.265C31.7904 117.322 29.1665 114.251 26.6941 111.044L29.0699 109.212C31.4812 112.34 34.0417 115.337 36.7412 118.21L34.5549 120.265ZM19.7861 101.083C17.6753 97.6829 15.72 94.149 13.9303 90.4768L16.6271 89.1625C18.3718 92.7424 20.2776 96.1869 22.335 99.5012L19.7861 101.083ZM9.1803 79.3451C7.80875 75.6313 6.5928 71.7916 5.54053 67.8218L8.4404 67.0531C9.46872 70.9326 10.6562 74.682 11.9945 78.3058L9.1803 79.3451ZM2.97015 56.0288C2.29947 52.1525 1.77328 48.1639 1.39771 44.0598L4.38522 43.7864C4.75369 47.8129 5.26956 51.7221 5.92624 55.5174L2.97015 56.0288ZM0.738739 31.9718C0.663879 28.0276 0.718933 23.9852 0.908478 19.842L3.90533 19.9791C3.71866 24.0598 3.66461 28.0375 3.73819 31.9148L0.738739 31.9718ZM1.79868 7.93419C2.00632 5.91416 2.24411 3.87174 2.51251 1.80667L5.48749 2.19333C5.22247 4.23227 4.98779 6.24805 4.78296 8.24094L1.79868 7.93419Z" fill="#85B6FF"/>
</svg>
